# Blender v3.2.0 OBJ File: 'normal_cube_edge.blend'
# www.blender.org
mtllib normal_cube_edge.mtl
g normal_cube_edge_body
v 0.500000 0.500000 -0.500000
v 0.500000 -0.500000 -0.500000
v 0.500000 0.500000 0.500000
v 0.500000 -0.500000 0.500000
v -0.500000 0.500000 -0.500000
v -0.500000 -0.500000 -0.500000
v -0.500000 0.500000 0.500000
v -0.500000 -0.500000 0.500000
v 0.437500 0.500000 0.437500
v -0.437500 0.500000 0.437500
v 0.437500 0.500000 -0.437500
v -0.437500 0.500000 -0.437500
v 0.437500 0.437500 -0.500000
v -0.437500 0.437500 -0.500000
v 0.437500 -0.437500 -0.500000
v -0.437500 -0.437500 -0.500000
vt 0.625000 1.000000
vt 0.625000 0.750000
vt 0.625000 0.750000
vt 0.625000 1.000000
vt 0.375000 0.750000
vt 0.375000 1.000000
vt 0.375000 0.000000
vt 0.625000 0.000000
vt 0.625000 0.250000
vt 0.375000 0.250000
vt 0.125000 0.500000
vt 0.375000 0.500000
vt 0.125000 0.750000
vt 0.625000 0.500000
vt 0.625000 0.500000
vt 0.625000 0.250000
vt 0.625000 0.250000
vt 0.625000 0.500000
vt 0.125000 0.500000
vt 0.375000 0.500000
vn 0.0000 1.0000 0.0000
vn 0.0000 0.0000 1.0000
vn -1.0000 0.0000 0.0000
vn 0.0000 -1.0000 0.0000
vn 1.0000 0.0000 0.0000
vn 0.0000 0.0000 -1.0000
usemtl Material
s off
f 7/1/1 3/2/1 9/3/1 10/4/1
f 4/5/2 3/2/2 7/1/2 8/6/2
f 8/7/3 7/8/3 5/9/3 6/10/3
f 6/11/4 2/12/4 4/5/4 8/13/4
f 2/12/5 1/14/5 3/2/5 4/5/5
f 5/9/6 1/14/6 13/15/6 14/16/6
f 1/14/1 5/9/1 12/17/1 11/18/1
f 1/14/1 11/18/1 9/3/1 3/2/1
f 5/9/1 7/1/1 10/4/1 12/17/1
f 2/12/6 6/11/6 16/19/6 15/20/6
f 6/11/6 5/9/6 14/16/6 16/19/6
f 2/12/6 15/20/6 13/15/6 1/14/6
