# Blender v3.2.0 OBJ File: 'normal_cube_edge.blend'
# www.blender.org
mtllib normal_cube_edge.mtl
g normal_cube_edge_body
v 0.500000 0.500000 -0.500000
v 0.500000 -0.500000 -0.500000
v 0.497094 0.499188 0.501007
v 0.500000 -0.500000 0.500000
v -0.500000 0.500000 -0.500000
v -0.500000 -0.500000 -0.500000
v -0.500000 0.500000 0.500000
v -0.500000 -0.500000 0.500000
v 0.437500 0.500000 -0.437500
v 0.437500 0.500000 0.437500
v -0.437500 0.500000 -0.437500
v -0.437500 0.500000 0.437500
v 0.437500 -0.437500 -0.500000
v -0.437500 -0.437500 -0.500000
v 0.437500 0.437500 -0.500000
v -0.437500 0.437500 -0.500000
vt 0.000000 1.000000
vt 0.000000 0.000000
vt 0.062500 0.062500
vt 0.062500 0.937500
vt 1.000000 0.000000
vt 1.000000 1.000000
vt 0.000000 1.000000
vt 0.000000 0.000000
vt 1.000000 0.000000
vt 1.000000 1.000000
vt 0.000000 1.000000
vt 0.000000 0.000000
vt 1.000000 1.000000
vt 0.000000 1.000000
vt 0.000000 0.000000
vt 1.000000 0.000000
vt 1.000000 1.000000
vt 1.000000 0.000000
vt 0.937500 0.937500
vt 0.937500 0.062500
vt 0.000000 0.000000
vt 1.000000 0.000000
vt 0.937500 0.062500
vt 0.062500 0.062500
vt 1.000000 1.000000
vt 0.000000 1.000000
vt 0.062500 0.937500
vt 0.937500 0.937500
vn 0.0066 1.0000 0.0004
vn -0.0005 -0.0005 1.0000
vn -1.0000 0.0000 0.0000
vn 0.0000 -1.0000 0.0000
vn 1.0000 0.0015 0.0015
vn 0.0000 1.0000 0.0000
vn 0.0004 1.0000 0.0065
vn 0.0000 0.0000 -1.0000
usemtl Material
s off
f 3/1/1 1/2/1 9/3/1 10/4/1
f 4/5/2 3/6/2 7/7/2 8/8/2
f 8/9/3 7/10/3 5/11/3 6/12/3
f 6/13/4 2/14/4 4/15/4 8/9/4
f 2/16/5 1/17/5 3/1/5 4/15/5
f 5/18/6 7/10/6 12/19/6 11/20/6
f 7/10/7 3/1/7 10/4/7 12/19/7
f 5/18/6 11/20/6 9/3/6 1/2/6
f 2/21/8 6/22/8 14/23/8 13/24/8
f 5/25/8 1/26/8 15/27/8 16/28/8
f 1/26/8 2/21/8 13/24/8 15/27/8
f 5/25/8 16/28/8 14/23/8 6/22/8
